<?xml version="1.0" standalone="no"?>
<!DOCTYPE svg PUBLIC "-//W3C//DTD SVG 20010904//EN"
 "http://www.w3.org/TR/2001/REC-SVG-20010904/DTD/svg10.dtd">
<svg version="1.0" xmlns="http://www.w3.org/2000/svg"
 width="1080.000000pt" height="1080.000000pt" viewBox="0 0 1080.000000 1080.000000"
 preserveAspectRatio="xMidYMid meet">

<g transform="translate(0.000000,1080.000000) scale(0.100000,-0.100000)"
fill="#000000" stroke="none">
<path d="M4505 6525 c-87 -19 -128 -38 -178 -84 -66 -62 -90 -125 -85 -226 3
-48 11 -93 21 -112 46 -87 142 -144 327 -193 136 -37 184 -62 205 -107 13 -28
14 -40 5 -69 -14 -42 -39 -59 -104 -74 -108 -24 -215 29 -231 113 l-7 37 -114
0 -114 0 0 -35 c0 -54 39 -144 83 -192 147 -160 503 -167 654 -13 80 82 101
218 49 323 -46 95 -119 139 -335 202 -68 20 -137 43 -152 51 -79 41 -79 138 1
179 38 20 152 20 190 0 36 -19 67 -58 75 -95 l7 -30 79 -1 c43 0 94 -1 112 -2
32 0 32 0 29 44 -4 64 -55 162 -105 203 -101 83 -261 114 -412 81z"/>
<path d="M2337 6513 c-4 -3 -7 -237 -7 -520 l0 -513 345 0 345 0 0 110 0 110
-225 0 -225 0 0 410 0 410 -113 0 c-63 0 -117 -3 -120 -7z"/>
<path d="M3497 6513 c-4 -3 -7 -237 -7 -520 l0 -513 120 0 120 0 0 520 0 520
-113 0 c-63 0 -117 -3 -120 -7z"/>
<path d="M5612 6273 l3 -148 1335 0 1335 0 3 148 3 147 -1341 0 -1341 0 3
-147z"/>
<path d="M7650 5654 c-221 -47 -401 -222 -456 -444 -22 -86 -22 -246 0 -330
73 -287 309 -460 626 -460 292 0 518 149 607 400 34 98 43 279 19 383 -54 231
-232 403 -467 452 -87 18 -242 18 -329 -1z m332 -276 c69 -32 129 -92 165
-166 25 -52 28 -67 28 -167 0 -98 -3 -116 -26 -165 -34 -72 -97 -136 -167
-168 -50 -24 -69 -27 -162 -27 -92 0 -112 3 -160 26 -148 69 -217 206 -199
390 15 142 103 250 242 295 69 23 210 14 279 -18z"/>
<path d="M5650 5520 l0 -130 190 0 190 0 0 -475 0 -475 140 0 140 0 0 475 0
475 190 0 190 0 0 130 0 130 -520 0 -520 0 0 -130z"/>
<path d="M2590 4580 l0 -150 1335 0 1335 0 0 150 0 150 -1335 0 -1335 0 0
-150z"/>
</g>
</svg>
